<svg xmlns="http://www.w3.org/2000/svg" width="24.999" height="24.999" viewBox="0 0 24.999 24.999">
    <g id="_01" data-name="1" transform="translate(-1496.5 -40.5)">
        <path id="Fill" fill="#999" stroke="rgba(0,0,0,0)" d="M12 25A12 12 0 0 1 3.515 4.514 12 12 0 0 1 24 13h-1.714A10.286 10.286 0 1 0 12 23.286V25zm10.334-.5l-2.554-2.554a4.93 4.93 0 1 1 1.166-1.166l2.554 2.554-1.165 1.166zm-5.406-9.856a3.286 3.286 0 1 0 3.287 3.285 3.289 3.289 0 0 0-3.287-3.286z" transform="translate(1497 40)"/>
    </g>
</svg>
