<svg xmlns="http://www.w3.org/2000/svg" width="24" height="24" viewBox="0 0 24 24">
    <g id="_03" data-name="3" transform="translate(-21 -20)">
        <path id="Fill" fill="#999" d="M24 23.083H0v-2h24v2zm0-6.709H0v-2h24v2zm-2.917-6.791h-5.75a1.919 1.919 0 0 1-1.917-1.916v-5.75A1.919 1.919 0 0 1 15.333 0h5.75A1.919 1.919 0 0 1 23 1.917v5.75a1.919 1.919 0 0 1-1.917 1.916zm-5.75-7.666v5.75h5.75v-5.75zM7.667 9.583h-5.75A1.919 1.919 0 0 1 0 7.667v-5.75A1.919 1.919 0 0 1 1.917 0h5.75a1.919 1.919 0 0 1 1.916 1.917v5.75a1.918 1.918 0 0 1-1.916 1.916zm-5.75-7.666v5.75h5.75v-5.75z" transform="translate(21 20)"/>
    </g>
</svg>
