<svg xmlns="http://www.w3.org/2000/svg" width="24" height="24" viewBox="0 0 24 24">
    <g id="icon_01" data-name="icon 01" transform="translate(-.5)">
        <path id="Union_11" fill="#f1ac0b" stroke="rgba(0,0,0,0)" d="M-10480.5-415.319c0 1.257-1.438 2.276-3.214 2.277h-8.572c-1.772 0-3.211-1.02-3.214-2.277v-6.072a6.085 6.085 0 0 0 4.02.907c2.71-.153 4.084-1.293 6.829-1.52a7.417 7.417 0 0 1 4.151.613" data-name="Union 11" transform="translate(10498 432.844)"/>
        <path id="Fill" fill="#111" d="M18.5 23.25h-20v-2h20v2zm-6.583-3.032H4.252A4.806 4.806 0 0 1-.54 15.426V7.76a1.922 1.922 0 0 1 1.917-1.916h15.811a4.312 4.312 0 0 1 0 8.624h-.48v.958a4.8 4.8 0 0 1-4.79 4.792zM1.377 7.76v7.666A2.881 2.881 0 0 0 4.252 18.3h7.666a2.881 2.881 0 0 0 2.875-2.875V7.76zm15.332 0v4.792h.479a2.4 2.4 0 0 0 0-4.792zm-7.335-2.7c.373-.285.262-.477.077-.793l-.067-.117-.874-1.566A1.757 1.757 0 0 1 9.152.248l.631-.484 1.2.747-.631.484a.888.888 0 0 0-.32 1.168l.874 1.569a.912.912 0 0 1 .163.391c.01.054.025.128.05.238v.411l-.188.284-1.551.009zm-3.586 0c.373-.285.261-.476.076-.792L5.8 4.153l-.877-1.569A1.758 1.758 0 0 1 5.565.248L6.2-.237 7.4.51l-.633.485a.888.888 0 0 0-.321 1.168l.875 1.569a.909.909 0 0 1 .163.388c.01.054.025.129.051.241l-.005.411-.188.284-1.55.009z" transform="translate(2 .75)"/>
    </g>
</svg>
