<svg xmlns="http://www.w3.org/2000/svg" width="24" height="24.042" viewBox="0 0 24 24.042">
    <defs>
        <style>
            .cls-5{fill:#111}
        </style>
    </defs>
    <g id="icon02" transform="translate(-3.502 -.005)">
        <path id="Path_13" fill="#f1950b" d="M15.73.546l-2.6 4.375 2.6 1.879 2.4-1.875z" data-name="Path 13"/>
        <path id="Rectangle_120" fill="#fff" d="M2 0h10a2 2 0 0 1 2 2v2H0V2a2 2 0 0 1 2-2z" data-name="Rectangle 120" transform="translate(8.502 11.046)"/>
        <path id="Rectangle_121" fill="#f24141" d="M1 0h18a1 1 0 0 1 1 1v4H0V1a1 1 0 0 1 1-1z" data-name="Rectangle 121" transform="translate(5.502 17.046)"/>
        <path id="Path_12" d="M17.357 2.057a.957.957 0 0 0-.545.3 14.807 14.807 0 0 0-1.091 1.349A4.747 4.747 0 0 0 14.5 6.624a3.243 3.243 0 0 0 2.992 3.423A3.254 3.254 0 0 0 20.5 6.624a4.747 4.747 0 0 0-1.224-2.916 15.2 15.2 0 0 0-1.091-1.349.923.923 0 0 0-.825-.3zm.143 2.815c.106.135.108.128.22.285a6.07 6.07 0 0 1 .767 1.466 1.054 1.054 0 0 1-1 1.13 1.042 1.042 0 0 1-.987-1.13 6.07 6.07 0 0 1 .767-1.466 3.532 3.532 0 0 1 .236-.285z" class="cls-5" data-name="Path 12" transform="translate(-1.767 -2.042)"/>
        <path id="Subtraction_9" d="M18 8H0V3a3 3 0 0 1 3-3h12a3 3 0 0 1 3 3v5zM4 2a2 2 0 0 0-2 2v2h14V4a2 2 0 0 0-2-2z" class="cls-5" data-name="Subtraction 9" transform="translate(6.502 9.046)"/>
        <path id="Subtraction_10" d="M24 8H0V1a2 2 0 0 1 2-2h20a2 2 0 0 1 2 2v7zM3 1a1 1 0 0 0-1 1v4h20V2a1 1 0 0 0-1-1z" class="cls-5" data-name="Subtraction 10" transform="translate(3.502 16.046)"/>
    </g>
</svg>
