<svg xmlns="http://www.w3.org/2000/svg" width="24" height="24.08" viewBox="0 0 24 24.08">
    <g id="tab_off04" fill="#fff" transform="translate(-1821 -119)">
        <path id="Rectangle_103" d="M0 0H24V24H0z" data-name="Rectangle 103" opacity="0.45" transform="translate(1821 119)"/>
        <path id="Polygon_9" stroke="#999" stroke-linejoin="round" stroke-width="2px" d="M11.087 2.043a1 1 0 0 1 1.826 0l2.459 5.5a1 1 0 0 0 .782.583l5.819.769a1 1 0 0 1 .571 1.7L18.2 14.886a1 1 0 0 0-.282.891l1.109 6.095a1 1 0 0 1-1.485 1.045L12.5 20a1 1 0 0 0-1 0l-5.044 2.916a1 1 0 0 1-1.485-1.045l1.109-6.094a1 1 0 0 0-.282-.891L1.456 10.6a1 1 0 0 1 .571-1.7l5.819-.77a1 1 0 0 0 .782-.583z" data-name="Polygon 9" transform="translate(1821 119)"/>
    </g>
</svg>
