<svg xmlns="http://www.w3.org/2000/svg" width="25" height="24.501" viewBox="0 0 25 24.501">
    <g id="tab_on02" transform="translate(-1705.5 -118.5)">
        <path id="Rectangle_93" fill="#fff" d="M0 0H24V24H0z" data-name="Rectangle 93" opacity="0.45" transform="translate(1706 119)"/>
        <path id="Subtraction_4" fill="#2082ef" stroke="rgba(0,0,0,0)" stroke-miterlimit="10" d="M-5984 24.5h-2V19a6.007 6.007 0 0 1 6-6h4a6.007 6.007 0 0 1 6 6v5.5h-2V19a4 4 0 0 0-4-4h-4a4 4 0 0 0-4 4v5.5zm22 0h-2V19a4 4 0 0 0-4-4h-.349a5.962 5.962 0 0 0-1.189-2h1.538a6.007 6.007 0 0 1 6 6v5.5zm-8-13.5a4.9 4.9 0 0 1-2.5-.694 4.948 4.948 0 0 0 1.6-1.458 2.962 2.962 0 0 0 .9.152 3 3 0 0 0 3-3 3 3 0 0 0-3-3 2.927 2.927 0 0 0-.9.153 4.965 4.965 0 0 0-1.6-1.459A4.915 4.915 0 0 1-5970 1a5.007 5.007 0 0 1 5 5 5.006 5.006 0 0 1-5 5zm-8 0a5.005 5.005 0 0 1-5-5 5.006 5.006 0 0 1 5-5 5.007 5.007 0 0 1 5 5 5.006 5.006 0 0 1-5 5zm0-8a3 3 0 0 0-3 3 3 3 0 0 0 3 3 3 3 0 0 0 3-3 3 3 0 0 0-3-3z" data-name="Subtraction 4" transform="translate(7692 118.001)"/>
    </g>
</svg>
