<svg xmlns="http://www.w3.org/2000/svg" width="24" height="24" viewBox="0 0 24 24">
    <g id="tab_on01" transform="translate(-1647 -119)">
        <path id="Rectangle_89" fill="#fff" d="M0 0H24V24H0z" data-name="Rectangle 89" opacity="0.45" transform="translate(1647 119)"/>
        <path id="Union_7" fill="#2082ef" d="M-5959 658a1 1 0 0 1-1-1 1 1 0 0 1 1-1h20a1 1 0 0 1 1 1 1 1 0 0 1-1 1zm3-6.607l1.146-1.5a9.185 9.185 0 0 0 6.206 2.393c2.992 0 4.507-1.644 4.507-3.608 0-2.25-2.476-3.285-4.766-4.071-2.918-1-6.168-2.178-6.168-5.464 0-2.785 2.328-5.142 6.463-5.142a9.7 9.7 0 0 1 5.726 2.036l-1.107 1.428a7.7 7.7 0 0 0-4.692-1.714c-2.918 0-4.248 1.571-4.248 3.285 0 2.107 2.29 2.893 4.58 3.715 3.029 1.107 6.354 2.142 6.354 5.822 0 2.927-2.4 5.428-6.76 5.428a11.775 11.775 0 0 1-7.241-2.608z" data-name="Union 7" transform="translate(7608 -515)"/>
    </g>
</svg>
