<svg xmlns="http://www.w3.org/2000/svg" width="24" height="24" viewBox="0 0 24 24">
    <g id="tab_on03" transform="translate(-1762 -119)">
        <path id="Rectangle_95" fill="#fff" d="M0 0H24V24H0z" data-name="Rectangle 95" opacity="0.45" transform="translate(1762 119)"/>
        <path id="Union_17" fill="#2082ef" d="M-5974 17v-2h4a4 4 0 0 0 4-4V7a4 4 0 0 0-4-4h-4V1h5a5.007 5.007 0 0 1 5 5v6a5.006 5.006 0 0 1-5 5zm-9 0a5.006 5.006 0 0 1-5-5V6a5.007 5.007 0 0 1 5-5h5v2h-4a4 4 0 0 0-4 4v4a4 4 0 0 0 4 4h4v2zm0-7V8h14v2z" data-name="Union 17" transform="translate(7750 122)"/>
    </g>
</svg>
