<svg xmlns="http://www.w3.org/2000/svg" width="161.778" height="41.641" viewBox="0 0 161.778 41.641">
    <defs>
        <style>
            .cls-1{fill:#2082ef}
        </style>
    </defs>
    <g id="_logo" data-name="++ logo" transform="translate(-35.191 -32.205)">
        <path id="Path_19" d="M6.547 0H1.984v-16.906h4.563zm0-20.953H1.984v-3.422h4.563zm7.922 4.047l.2 2.422A6.184 6.184 0 0 1 16.75-16.5a5.394 5.394 0 0 1 2.766-.719 5.086 5.086 0 0 1 4 1.609q1.437 1.61 1.437 5.048V0h-4.578v-10.571a3.433 3.433 0 0 0-.687-2.42 2.764 2.764 0 0 0-2.078-.713 3.514 3.514 0 0 0-1.625.368 3.343 3.343 0 0 0-1.2 1.041V0h-4.566v-16.906zm19.313-4.141v4.141h2.844v3.2h-2.845v8.609a1.99 1.99 0 0 0 .406 1.406 1.448 1.448 0 0 0 1.094.422A4.191 4.191 0 0 0 35.9-3.3a5.413 5.413 0 0 0 .6-.133l.391 3.3a9.156 9.156 0 0 1-1.344.352 8.1 8.1 0 0 1-1.422.117 4.863 4.863 0 0 1-3.633-1.3 5.687 5.687 0 0 1-1.273-4.109V-13.7H26.75v-3.2h2.469v-4.141zm14.641 8.063l-1.672-.047a3.039 3.039 0 0 0-1.672.422 2.674 2.674 0 0 0-1 1.188V0h-4.548v-16.906h4.234l.2 2.5a5.333 5.333 0 0 1 1.539-2.07 3.431 3.431 0 0 1 2.18-.742 3.41 3.41 0 0 1 .633.055q.289.055.586.133zM60.656 0a9.6 9.6 0 0 1-.43-1.219 8.477 8.477 0 0 1-.258-1.312 6.288 6.288 0 0 1-1.851 2.047 4.625 4.625 0 0 1-2.742.813 5.709 5.709 0 0 1-4.094-1.367 4.9 4.9 0 0 1-1.437-3.727 4.458 4.458 0 0 1 1.914-3.852 9.559 9.559 0 0 1 5.586-1.367h2.547v-1.344a2.63 2.63 0 0 0-.641-1.891 2.493 2.493 0 0 0-1.891-.672 2.478 2.478 0 0 0-1.711.539 1.9 1.9 0 0 0-.6 1.492l-4.406-.016-.016-.094a4.293 4.293 0 0 1 1.859-3.7 8.1 8.1 0 0 1 5.172-1.555 7.549 7.549 0 0 1 4.922 1.539 5.328 5.328 0 0 1 1.89 4.386v6.984a13.21 13.21 0 0 0 .18 2.234A11.212 11.212 0 0 0 65.219 0zm-4.172-3.047a3.915 3.915 0 0 0 2.141-.594 3.091 3.091 0 0 0 1.266-1.375v-2.39h-2.547a3.045 3.045 0 0 0-2.2.727 2.357 2.357 0 0 0-.75 1.758 1.756 1.756 0 0 0 .563 1.359 2.179 2.179 0 0 0 1.527.515z" class="cls-1" data-name="Path 19" transform="translate(82 64)"/>
        <path id="Path_20" fill="#999" d="M19.734 0h-1.859L4.953-19.562l-.094.016V0H2.984v-22.75h1.875L17.781-3.219l.094-.016V-22.75h1.859zm11.8.328a6.785 6.785 0 0 1-5.273-2.344 8.56 8.56 0 0 1-2.1-5.937v-.859a8.819 8.819 0 0 1 2.086-6.016 6.473 6.473 0 0 1 5.053-2.391 6.262 6.262 0 0 1 4.891 1.969A7.527 7.527 0 0 1 37.969-10v1.594H26.031v.452a7.455 7.455 0 0 0 1.516 4.771 4.833 4.833 0 0 0 3.984 1.918 8.18 8.18 0 0 0 2.984-.484 5.87 5.87 0 0 0 2.109-1.391l.8 1.281a6.782 6.782 0 0 1-2.414 1.6 9.24 9.24 0 0 1-3.479.587zM31.3-15.625a4.476 4.476 0 0 0-3.484 1.582 6.793 6.793 0 0 0-1.641 3.966L26.2-10h9.906v-.468a5.38 5.38 0 0 0-1.3-3.677 4.435 4.435 0 0 0-3.506-1.48zm13.313-5.609v4.328h3.719v1.531h-3.723v11.016a3.6 3.6 0 0 0 .6 2.352 2.012 2.012 0 0 0 1.6.7q.453 0 .883-.039t.992-.133l.281 1.391a4.846 4.846 0 0 1-1.141.313 8.35 8.35 0 0 1-1.344.109A3.5 3.5 0 0 1 43.711-.8a5.3 5.3 0 0 1-.992-3.562v-11.013H39.8v-1.531h2.922v-4.328z" data-name="Path 20" transform="translate(148 64)"/>
        <g id="Rectangle_2" fill="none" stroke="#2082ef" stroke-width="3px" data-name="Rectangle 2" transform="rotate(-14.98 173.169 -113.14)">
            <rect width="34" height="34" stroke="none" rx="5"/>
            <rect width="31" height="31" x="1.5" y="1.5" rx="3.5"/>
        </g>
        <path id="Path_2" d="M9.5 12.744a1.7 1.7 0 0 0-.6-1.39 7.6 7.6 0 0 0-2.138-1.04 16.477 16.477 0 0 1-4.775-2.178A3.938 3.938 0 0 1 .434 4.778 4.062 4.062 0 0 1 2.285 1.32 7.9 7.9 0 0 1 6.987 0a7.149 7.149 0 0 1 4.632 1.454A4.435 4.435 0 0 1 13.365 5.2l-.023.07H9.51a2.147 2.147 0 0 0-.689-1.653 2.7 2.7 0 0 0-1.9-.637 2.979 2.979 0 0 0-1.873.52 1.586 1.586 0 0 0-.678 1.3A1.374 1.374 0 0 0 5.054 6a13.741 13.741 0 0 0 2.564 1.125 11.94 11.94 0 0 1 4.362 2.126 4.336 4.336 0 0 1 1.466 3.469 4.1 4.1 0 0 1-1.746 3.51 7.714 7.714 0 0 1-4.631 1.27 8.623 8.623 0 0 1-5.011-1.454A4.641 4.641 0 0 1 0 11.856l.023-.07h3.845a2.531 2.531 0 0 0 .794 2.1 3.829 3.829 0 0 0 2.406.631 2.855 2.855 0 0 0 1.832-.488 1.578 1.578 0 0 0 .6-1.285z" class="cls-1" data-name="Path 2" transform="rotate(-14.98 199.947 -155.802)"/>
    </g>
</svg>
